<?xml version="1.0" encoding="UTF-8"?>
<svg id="Capa_1" data-name="Capa 1" xmlns="http://www.w3.org/2000/svg" viewBox="0 0 603 603">
  <defs>
    <style>
      .cls-1 {
        fill: #fff;
      }

      .cls-2 {
        fill: #962222;
      }

      .cls-3 {
        fill: #07a030;
      }

      .cls-4 {
        fill: #fcdd09;
      }

      .cls-5 {
        fill: #c41e1e;
      }

      .cls-6 {
        fill: none;
      }
    </style>
  </defs>
  <g id="Capa_2" data-name="Capa 2">
    <g id="Capa_2-2" data-name="Capa 2-2">
      <polygon class="cls-3" points="412.09 176 190.09 176 190.09 149.63 190.09 102 412.09 102 412.09 129.63 412.09 150.96 412.09 176"/>
      <g id="Capa_2-2-2" data-name="Capa 2-2">
        <polygon class="cls-1" points="412.09 250 190.09 250 190.09 223.63 190.09 176 412.09 176 412.09 203.63 412.09 224.96 412.09 250"/>
      </g>
      <g id="Capa_2-2-3" data-name="Capa 2-2">
        <polygon class="cls-4" points="412.52 324 190.52 324 190.52 297.63 190.52 250 412.52 250 412.52 277.63 412.52 298.96 412.52 324"/>
      </g>
    </g>
    <g id="Capa_1-2" data-name="Capa 1-2">
      <g id="Capa_2-3" data-name="Capa 2-3">
        <g id="Capa_1-2-2" data-name="Capa 1-2-2">
          <path class="cls-5" d="M300.94,580.12c-19.12-22.39-59.94-71.46-100.37-128.12-71.57-100.54-109.47-178.89-109.47-226.61,0-116.01,94.39-210.39,210.4-210.39s210.39,94.38,210.39,210.39c0,47.71-38,126-110,226.54-40.66,56.73-81.73,105.82-100.95,128.19Zm.17-493.12c-69.59,0-126,56.41-126,126s56.41,126,126,126,126-56.41,126-126-56.41-126-126-126Z"/>
          <path class="cls-2" d="M301.5,30c107.91,0,195.39,87.48,195.4,195.39,0,16.18-5.54,46.25-31.89,97.59-18,35.12-43.32,75.49-75.19,120-33.55,46.86-67.43,88.49-88.85,113.94-21.3-25.45-55-67.06-88.33-113.88-68.7-96.44-106.53-173.74-106.53-217.65-.01-107.91,87.46-195.39,195.37-195.39h0m-.39,324c77.74,0,141-63.25,141-141s-63.25-141-141-141-141,63.25-141,141,63.25,141,141,141m.41-354C177,0,76.11,100.91,76.11,225.39s224.81,377.61,224.81,377.61c0,0,226-253.13,226-377.61S426,0,301.5,0Zm-.39,324c-61.3,0-111-49.7-111-111s49.7-111,111-111,111,49.7,111,111-49.7,111-111,111h0Z"/>
          <rect class="cls-6" width="603" height="603"/>
        </g>
      </g>
    </g>
  </g>
</svg>