<svg xmlns="http://www.w3.org/2000/svg" viewBox="0 0 603 603"><defs><style>.cls-1{fill:#c41e1e;}.cls-2{fill:#962222;}.cls-3{fill:#fff;}.cls-4{fill:#b59a9a;}.cls-5{fill:none;}</style></defs><g id="Capa_2" data-name="Capa 2"><g id="Capa_1-2" data-name="Capa 1"><path class="cls-1" d="M300.85,572.42c-20.33-24-58.54-70.35-96.36-123.43C133.51,349.37,96,272.06,96,225.39,96,112.14,188.14,20,301.39,20s205.4,92.14,205.4,205.39c0,46.7-37.78,124.1-109.25,223.84C359.53,502.27,321.23,548.53,300.85,572.42Z"/><path class="cls-2" d="M301.39,40a185.39,185.39,0,0,1,185.4,185.39c0,15.07-5.34,43.43-30.75,93C438.26,353,413.24,392.94,381.68,437c-29.63,41.4-59.54,78.71-80.79,104.29C279.75,515.74,250,478.45,220.58,437.1c-31.4-44.09-56.29-84-74-118.67-25.29-49.56-30.6-78-30.6-93A185.39,185.39,0,0,1,301.39,40m0-40C176.91,0,76,100.91,76,225.39S300.81,603,300.81,603s226-253.13,226-377.61S425.87,0,301.39,0Z"/><circle class="cls-3" cx="301" cy="213" r="101"/><path class="cls-4" d="M301,122a91,91,0,1,1-91,91,91.1,91.1,0,0,1,91-91m0-20A111,111,0,1,0,412,213,111,111,0,0,0,301,102Z"/><rect class="cls-5" width="603" height="603"/></g></g></svg>