<svg xmlns="http://www.w3.org/2000/svg" viewBox="0 0 450.79 603"><defs><style>.cls-1{fill:#c41e1e;}.cls-2{fill:#962222;}.cls-3{fill:#fff;}.cls-4{fill:#b59a9a;}</style></defs><g id="Capa_2" data-name="Capa 2"><g id="Capa_1-2" data-name="Capa 1"><path class="cls-1" d="M224.85,572.42c-20.33-24-58.54-70.35-96.36-123.43C57.52,349.37,20,272.06,20,225.39,20,112.14,112.14,20,225.39,20s205.4,92.14,205.4,205.39c0,46.7-37.78,124.1-109.25,223.84C283.53,502.27,245.23,548.53,224.85,572.42Z"/><path class="cls-2" d="M225.39,40a185.39,185.39,0,0,1,185.4,185.39c0,15.07-5.34,43.43-30.75,93C362.26,353,337.24,392.94,305.68,437c-29.63,41.4-59.54,78.71-80.79,104.29C203.75,515.74,174,478.45,144.58,437.1c-31.4-44.09-56.29-84-74-118.67-25.29-49.56-30.6-78-30.6-93A185.39,185.39,0,0,1,225.39,40m0-40C100.91,0,0,100.91,0,225.39S224.81,603,224.81,603s226-253.13,226-377.61S349.87,0,225.39,0Z"/><circle class="cls-3" cx="225" cy="213" r="101"/><path class="cls-4" d="M225,122a91,91,0,1,1-91,91,91.1,91.1,0,0,1,91-91m0-20A111,111,0,1,0,336,213,111,111,0,0,0,225,102Z"/></g></g></svg>