<svg xmlns="http://www.w3.org/2000/svg" viewBox="0 0 603 603"><defs><style>.cls-1{fill:#078930;}.cls-2{fill:#fcdd09;}.cls-3{fill:#c41e1e;}.cls-4{fill:#962222;}.cls-5{fill:none;}</style></defs><g id="Capa_2" data-name="Capa 2"><g id="Capa_5" data-name="Capa 5"><polygon class="cls-1" points="414.14 213 197.66 140.16 215.9 129.6 225.02 118.56 255.26 104.64 297.5 99.84 316.22 97.92 355.1 107.52 393.5 132.48 412.11 171.36 414.14 213"/><polygon class="cls-1" points="414.14 211 197.66 283.84 215.9 294.4 225.02 305.44 255.26 319.36 297.5 324.16 316.22 326.08 355.1 316.48 393.5 291.52 412.11 252.64 414.14 211"/><polygon class="cls-2" points="183.26 180.96 274.46 211 190.1 240.96 206.34 280.92 411.17 212 200.4 141.08 183.26 180.96"/><polygon points="183.26 180.96 190.1 240.96 274.46 211 183.26 180.96"/></g><g id="Capa_1-2" data-name="Capa 1"><path class="cls-3" d="M300.94,595.12C281.82,572.73,241,523.66,200.57,467,129,366.46,91.1,288.11,91.1,240.39,91.1,124.38,185.49,30,301.5,30s210.39,94.38,210.39,210.39c0,47.71-38,126-110,226.54C361.23,523.66,320.16,572.75,300.94,595.12ZM301.1,102a126,126,0,1,0,126,126A126.14,126.14,0,0,0,301.1,102Z" transform="translate(0 -15)"/><path class="cls-4" d="M301.5,45A195.41,195.41,0,0,1,496.9,240.39c0,16.18-5.54,46.25-31.89,97.59-18,35.12-43.32,75.49-75.19,120-33.55,46.86-67.43,88.49-88.85,113.94-21.3-25.45-55-67.06-88.33-113.88C143.94,361.6,106.11,284.3,106.11,240.39A195.38,195.38,0,0,1,301.5,45m-.39,324c77.74,0,141-63.25,141-141s-63.26-141-141-141-141,63.25-141,141,63.25,141,141,141m.39-354C177,15,76.11,115.91,76.11,240.39S300.92,618,300.92,618s226-253.13,226-377.61S426,15,301.5,15Zm-.39,324a111,111,0,1,1,111-111,111,111,0,0,1-111,111Z" transform="translate(0 -15)"/><rect class="cls-5" width="603" height="603"/></g></g></svg>